<svg width="28" height="28" viewBox="0 0 28 28" fill="none" xmlns="http://www.w3.org/2000/svg">
    <g clip-path="url(#clip0_2014_129)">
        <path d="M11.6667 8.16665C11.6664 9.78906 12.1495 11.3748 13.0541 12.7216C13.9588 14.0683 15.2441 15.1152 16.7461 15.7285C18.2481 16.3418 19.8988 16.4938 21.4875 16.1652C23.0763 15.8366 24.5312 15.0422 25.6667 13.8833V14C25.6667 20.4435 20.4435 25.6666 14 25.6666C7.55651 25.6666 2.33334 20.4435 2.33334 14C2.33334 7.55648 7.55651 2.33331 14 2.33331H14.1167C13.3397 3.09296 12.7227 4.00044 12.3019 5.00228C11.8811 6.00411 11.6651 7.08004 11.6667 8.16665ZM4.66668 14C4.66583 16.0825 5.36146 18.1054 6.64288 19.7469C7.92431 21.3885 9.71792 22.5543 11.7383 23.0589C13.7587 23.5636 15.8899 23.378 17.7927 22.5318C19.6955 21.6856 21.2606 20.2273 22.239 18.389C20.4977 18.7992 18.6804 18.7577 16.9596 18.2685C15.2388 17.7792 13.6716 16.8584 12.4066 15.5934C11.1416 14.3284 10.2208 12.7611 9.73151 11.0404C9.24225 9.31956 9.20077 7.5023 9.61101 5.76098C8.11719 6.55681 6.86793 7.74392 5.99698 9.19523C5.12603 10.6465 4.66618 12.3074 4.66668 14Z" fill="white"/>
    </g>
    <defs>
        <clipPath id="clip0_2014_129">
            <rect width="28" height="28" fill="white"/>
        </clipPath>
    </defs>
</svg>
