<svg width="28" height="28" viewBox="0 0 28 28" fill="none" xmlns="http://www.w3.org/2000/svg">
    <g clip-path="url(#clip0_1770_149)">
        <path d="M14 21C12.1435 21 10.363 20.2625 9.05027 18.9497C7.73752 17.637 7.00002 15.8565 7.00002 14C7.00002 12.1435 7.73752 10.363 9.05027 9.05024C10.363 7.73749 12.1435 6.99999 14 6.99999C15.8565 6.99999 17.637 7.73749 18.9498 9.05024C20.2625 10.363 21 12.1435 21 14C21 15.8565 20.2625 17.637 18.9498 18.9497C17.637 20.2625 15.8565 21 14 21ZM14 18.6667C15.2377 18.6667 16.4247 18.175 17.2999 17.2998C18.175 16.4247 18.6667 15.2377 18.6667 14C18.6667 12.7623 18.175 11.5753 17.2999 10.7002C16.4247 9.82499 15.2377 9.33332 14 9.33332C12.7623 9.33332 11.5754 9.82499 10.7002 10.7002C9.82502 11.5753 9.33335 12.7623 9.33335 14C9.33335 15.2377 9.82502 16.4247 10.7002 17.2998C11.5754 18.175 12.7623 18.6667 14 18.6667ZM12.8334 1.16666H15.1667V4.66666H12.8334V1.16666ZM12.8334 23.3333H15.1667V26.8333H12.8334V23.3333ZM4.10085 5.75049L5.75052 4.10082L8.22502 6.57532L6.57535 8.22499L4.10085 5.75049ZM19.775 21.4247L21.4247 19.775L23.8992 22.2495L22.2495 23.8992L19.775 21.4247ZM22.2495 4.09966L23.8992 5.75049L21.4247 8.22499L19.775 6.57532L22.2495 4.10082V4.09966ZM6.57535 19.775L8.22502 21.4247L5.75052 23.8992L4.10085 22.2495L6.57535 19.775ZM26.8334 12.8333V15.1667H23.3334V12.8333H26.8334ZM4.66669 12.8333V15.1667H1.16669V12.8333H4.66669Z" fill="black"/>
    </g>
    <defs>
        <clipPath id="clip0_1770_149">
            <rect width="28" height="28" fill="white"/>
        </clipPath>
    </defs>
</svg>
