<svg width="166" height="44" viewBox="0 0 166 44" fill="none" xmlns="http://www.w3.org/2000/svg">
    <g clip-path="url(#clip0_1766_105)">
        <path d="M32 29.5V28H27.5V23.5H32V26.5H35V29.5H33.5V32.5H30.5V35.5H27.5V31H30.5V29.5H32ZM39.5 35.5H33.5V32.5H36.5V29.5H39.5V35.5ZM12.5 8.5H24.5V20.5H12.5V8.5ZM15.5 11.5V17.5H21.5V11.5H15.5ZM27.5 8.5H39.5V20.5H27.5V8.5ZM30.5 11.5V17.5H36.5V11.5H30.5ZM12.5 23.5H24.5V35.5H12.5V23.5ZM15.5 26.5V32.5H21.5V26.5H15.5ZM35 23.5H39.5V26.5H35V23.5ZM17 13H20V16H17V13ZM17 28H20V31H17V28ZM32 13H35V16H32V13Z" fill="black"/>
    </g>
    <path d="M59.928 17.424C59.816 17.312 59.608 17.16 59.304 16.968C59.016 16.776 58.656 16.592 58.224 16.416C57.808 16.24 57.352 16.088 56.856 15.96C56.36 15.816 55.856 15.744 55.344 15.744C54.448 15.744 53.768 15.912 53.304 16.248C52.856 16.584 52.632 17.056 52.632 17.664C52.632 18.128 52.776 18.496 53.064 18.768C53.352 19.04 53.784 19.272 54.36 19.464C54.936 19.656 55.656 19.864 56.52 20.088C57.64 20.36 58.608 20.696 59.424 21.096C60.256 21.48 60.888 21.992 61.32 22.632C61.768 23.256 61.992 24.088 61.992 25.128C61.992 26.04 61.824 26.824 61.488 27.48C61.152 28.12 60.688 28.64 60.096 29.04C59.504 29.44 58.832 29.736 58.08 29.928C57.328 30.104 56.528 30.192 55.68 30.192C54.832 30.192 53.984 30.104 53.136 29.928C52.288 29.752 51.472 29.504 50.688 29.184C49.904 28.848 49.184 28.448 48.528 27.984L49.992 25.128C50.136 25.272 50.392 25.464 50.76 25.704C51.128 25.928 51.576 26.16 52.104 26.4C52.632 26.624 53.208 26.816 53.832 26.976C54.456 27.136 55.088 27.216 55.728 27.216C56.624 27.216 57.304 27.064 57.768 26.76C58.232 26.456 58.464 26.024 58.464 25.464C58.464 24.952 58.28 24.552 57.912 24.264C57.544 23.976 57.032 23.728 56.376 23.52C55.72 23.296 54.944 23.056 54.048 22.8C52.976 22.496 52.08 22.16 51.36 21.792C50.64 21.408 50.104 20.928 49.752 20.352C49.4 19.776 49.224 19.056 49.224 18.192C49.224 17.024 49.496 16.048 50.04 15.264C50.6 14.464 51.352 13.864 52.296 13.464C53.24 13.048 54.288 12.84 55.44 12.84C56.24 12.84 56.992 12.928 57.696 13.104C58.416 13.28 59.088 13.512 59.712 13.8C60.336 14.088 60.896 14.4 61.392 14.736L59.928 17.424ZM83.6484 30H80.4324V22.944C80.4324 21.952 80.2564 21.224 79.9044 20.76C79.5684 20.28 79.0964 20.04 78.4884 20.04C77.8644 20.04 77.2644 20.288 76.6884 20.784C76.1284 21.264 75.7284 21.896 75.4884 22.68V30H72.2724V22.944C72.2724 21.936 72.0964 21.2 71.7444 20.736C71.4084 20.272 70.9364 20.04 70.3284 20.04C69.7044 20.04 69.1044 20.28 68.5284 20.76C67.9684 21.24 67.5684 21.872 67.3284 22.656V30H64.1124V17.424H67.0164V19.752C67.4964 18.936 68.1364 18.312 68.9364 17.88C69.7364 17.432 70.6564 17.208 71.6964 17.208C72.7364 17.208 73.5444 17.464 74.1204 17.976C74.7124 18.488 75.0884 19.12 75.2484 19.872C75.7604 19.008 76.4084 18.352 77.1924 17.904C77.9924 17.44 78.8884 17.208 79.8804 17.208C80.6644 17.208 81.2964 17.352 81.7764 17.64C82.2724 17.912 82.6564 18.288 82.9284 18.768C83.2004 19.232 83.3844 19.76 83.4804 20.352C83.5924 20.944 83.6484 21.544 83.6484 22.152V30ZM85.5844 26.28C85.5844 25.464 85.8084 24.752 86.2564 24.144C86.7204 23.52 87.3604 23.04 88.1764 22.704C88.9924 22.368 89.9284 22.2 90.9844 22.2C91.5124 22.2 92.0484 22.24 92.5924 22.32C93.1364 22.4 93.6084 22.528 94.0084 22.704V22.032C94.0084 21.232 93.7684 20.616 93.2884 20.184C92.8244 19.752 92.1284 19.536 91.2004 19.536C90.5124 19.536 89.8564 19.656 89.2324 19.896C88.6084 20.136 87.9524 20.488 87.2644 20.952L86.2324 18.84C87.0644 18.296 87.9124 17.888 88.7764 17.616C89.6564 17.344 90.5764 17.208 91.5364 17.208C93.3284 17.208 94.7204 17.656 95.7124 18.552C96.7204 19.448 97.2244 20.728 97.2244 22.392V26.4C97.2244 26.736 97.2804 26.976 97.3924 27.12C97.5204 27.264 97.7204 27.352 97.9924 27.384V30C97.7044 30.048 97.4404 30.088 97.2004 30.12C96.9764 30.152 96.7844 30.168 96.6244 30.168C95.9844 30.168 95.4964 30.024 95.1604 29.736C94.8404 29.448 94.6404 29.096 94.5604 28.68L94.4884 28.032C93.9444 28.736 93.2644 29.28 92.4484 29.664C91.6324 30.048 90.8004 30.24 89.9524 30.24C89.1204 30.24 88.3684 30.072 87.6964 29.736C87.0404 29.384 86.5204 28.912 86.1364 28.32C85.7684 27.712 85.5844 27.032 85.5844 26.28ZM93.4084 26.928C93.5844 26.736 93.7284 26.544 93.8404 26.352C93.9524 26.16 94.0084 25.984 94.0084 25.824V24.552C93.6244 24.392 93.2084 24.272 92.7604 24.192C92.3124 24.096 91.8884 24.048 91.4884 24.048C90.6564 24.048 89.9684 24.232 89.4244 24.6C88.8964 24.952 88.6324 25.424 88.6324 26.016C88.6324 26.336 88.7204 26.64 88.8964 26.928C89.0724 27.216 89.3284 27.448 89.6644 27.624C90.0004 27.8 90.4004 27.888 90.8644 27.888C91.3444 27.888 91.8164 27.8 92.2804 27.624C92.7444 27.432 93.1204 27.2 93.4084 26.928ZM107.718 20.208C106.742 20.208 105.87 20.4 105.102 20.784C104.334 21.152 103.782 21.688 103.446 22.392V30H100.23V17.424H103.182V20.112C103.63 19.248 104.198 18.568 104.886 18.072C105.574 17.576 106.302 17.304 107.07 17.256C107.246 17.256 107.382 17.256 107.478 17.256C107.574 17.256 107.654 17.264 107.718 17.28V20.208ZM117.047 29.352C116.775 29.464 116.447 29.592 116.063 29.736C115.679 29.88 115.263 29.992 114.815 30.072C114.383 30.168 113.943 30.216 113.495 30.216C112.903 30.216 112.359 30.112 111.863 29.904C111.367 29.696 110.967 29.368 110.663 28.92C110.375 28.456 110.231 27.856 110.231 27.12V19.896H108.575V17.424H110.231V13.344H113.447V17.424H116.087V19.896H113.447V26.04C113.463 26.472 113.583 26.784 113.807 26.976C114.031 27.168 114.311 27.264 114.647 27.264C114.983 27.264 115.311 27.208 115.631 27.096C115.951 26.984 116.207 26.888 116.399 26.808L117.047 29.352ZM132.071 30.12C130.823 30.12 129.687 29.88 128.663 29.4C127.655 28.904 126.783 28.248 126.047 27.432C125.327 26.616 124.767 25.696 124.367 24.672C123.967 23.632 123.767 22.568 123.767 21.48C123.767 20.344 123.975 19.264 124.391 18.24C124.823 17.2 125.407 16.28 126.143 15.48C126.895 14.664 127.775 14.024 128.783 13.56C129.807 13.08 130.927 12.84 132.143 12.84C133.375 12.84 134.495 13.088 135.503 13.584C136.527 14.08 137.399 14.744 138.119 15.576C138.839 16.408 139.399 17.336 139.799 18.36C140.199 19.384 140.399 20.44 140.399 21.528C140.399 22.648 140.191 23.728 139.775 24.768C139.359 25.792 138.775 26.712 138.023 27.528C137.287 28.328 136.407 28.96 135.383 29.424C134.375 29.888 133.271 30.12 132.071 30.12ZM132.095 27.192C132.895 27.192 133.607 27.032 134.231 26.712C134.855 26.376 135.375 25.936 135.791 25.392C136.207 24.832 136.519 24.216 136.727 23.544C136.951 22.856 137.063 22.168 137.063 21.48C137.063 20.744 136.943 20.032 136.703 19.344C136.479 18.656 136.151 18.048 135.719 17.52C135.303 16.992 134.783 16.568 134.159 16.248C133.551 15.928 132.863 15.768 132.095 15.768C131.279 15.768 130.559 15.936 129.935 16.272C129.327 16.592 128.815 17.032 128.399 17.592C127.983 18.136 127.663 18.744 127.439 19.416C127.231 20.088 127.127 20.776 127.127 21.48C127.127 22.216 127.239 22.928 127.463 23.616C127.687 24.304 128.007 24.912 128.423 25.44C128.855 25.968 129.375 26.392 129.983 26.712C130.607 27.032 131.311 27.192 132.095 27.192ZM131.759 23.688H134.879L140.495 30H137.375L131.759 23.688ZM142.917 30V12.96H150.453C151.237 12.96 151.957 13.12 152.613 13.44C153.285 13.76 153.861 14.192 154.341 14.736C154.837 15.28 155.213 15.888 155.469 16.56C155.741 17.232 155.877 17.92 155.877 18.624C155.877 19.344 155.749 20.04 155.493 20.712C155.253 21.368 154.901 21.944 154.437 22.44C153.973 22.936 153.429 23.32 152.805 23.592L156.693 30H153.045L149.541 24.288H146.229V30H142.917ZM146.229 21.384H150.381C150.797 21.384 151.165 21.264 151.485 21.024C151.805 20.768 152.061 20.432 152.253 20.016C152.445 19.6 152.541 19.136 152.541 18.624C152.541 18.08 152.429 17.608 152.205 17.208C151.981 16.792 151.693 16.464 151.341 16.224C151.005 15.984 150.637 15.864 150.237 15.864H146.229V21.384Z" fill="black"/>
    <defs>
        <clipPath id="clip0_1766_105">
            <rect width="36" height="36" fill="white" transform="translate(8 4)"/>
        </clipPath>
    </defs>
</svg>
