<svg width="213" height="38" viewBox="0 0 213 38" fill="none" xmlns="http://www.w3.org/2000/svg">
<path d="M11.1328 36.4884C9.32617 36.4884 7.69857 36.0408 6.25 35.1457C4.78516 34.2505 3.60514 33.0461 2.70996 31.5324C1.83105 30.0187 1.3916 28.326 1.3916 26.4543V10.6095C1.3916 8.78661 1.83919 7.12645 2.73438 5.62906C3.61328 4.11539 4.79329 2.91096 6.27441 2.01578C7.75553 1.10432 9.375 0.64859 11.1328 0.64859C12.972 0.64859 14.6322 1.08804 16.1133 1.96695C17.5944 2.86213 18.7663 4.05842 19.6289 5.55582C20.5078 7.05321 20.9473 8.73778 20.9473 10.6095V12.9044C20.9473 13.0347 20.8659 13.0998 20.7031 13.0998H15.0879C14.9577 13.0998 14.8926 13.0347 14.8926 12.9044V11.0002C14.8926 9.73062 14.5345 8.68082 13.8184 7.85074C13.1022 7.02066 12.207 6.60562 11.1328 6.60562C10.1725 6.60562 9.31803 7.00438 8.56934 7.80191C7.82064 8.59944 7.44629 9.53531 7.44629 10.6095V26.4543C7.44629 27.5447 7.8125 28.4888 8.54492 29.2863C9.27734 30.0675 10.14 30.4582 11.1328 30.4582C12.207 30.4582 13.1022 30.0757 13.8184 29.3107C14.5345 28.5294 14.8926 27.5773 14.8926 26.4543V23.9884H11.4014C11.2223 23.9884 11.1328 23.9071 11.1328 23.7443V18.1535C11.1328 17.9907 11.2223 17.9093 11.4014 17.9093H20.752C20.8822 17.9093 20.9473 17.9907 20.9473 18.1535V26.4543C20.9473 28.326 20.5078 30.0187 19.6289 31.5324C18.7337 33.0461 17.5537 34.2505 16.0889 35.1457C14.624 36.0408 12.972 36.4884 11.1328 36.4884ZM40.8447 36.0002H24.6826C24.5524 36.0002 24.4873 35.9188 24.4873 35.756L24.5361 1.40543C24.5361 1.27522 24.6012 1.21011 24.7314 1.21011H40.7959C40.9261 1.21011 40.9912 1.29149 40.9912 1.45425V7.04507C40.9912 7.17528 40.9261 7.24039 40.7959 7.24039H30.542V15.0529H40.7959C40.9261 15.0529 40.9912 15.118 40.9912 15.2482L41.04 20.9123C41.04 21.0425 40.9749 21.1076 40.8447 21.1076H30.542V29.8478H40.8447C40.9749 29.8478 41.04 29.9292 41.04 30.0919V35.8048C41.04 35.935 40.9749 36.0002 40.8447 36.0002ZM50.9277 36.0002H45.9229C45.6624 36.0002 45.5322 35.8862 45.5322 35.6584L45.4834 1.60074C45.4834 1.34032 45.6136 1.21011 45.874 1.21011H50.3906L58.8379 20.9123L58.5938 1.60074C58.5938 1.34032 58.7402 1.21011 59.0332 1.21011H63.9893C64.1846 1.21011 64.2822 1.34032 64.2822 1.60074L64.3311 35.7072C64.3311 35.9025 64.2497 36.0002 64.0869 36.0002H59.6924L51.0254 17.5919L51.3916 35.6095C51.3916 35.8699 51.237 36.0002 50.9277 36.0002ZM85.0342 36.0002H68.8721C68.7419 36.0002 68.6768 35.9188 68.6768 35.756L68.7256 1.40543C68.7256 1.27522 68.7907 1.21011 68.9209 1.21011H84.9854C85.1156 1.21011 85.1807 1.29149 85.1807 1.45425V7.04507C85.1807 7.17528 85.1156 7.24039 84.9854 7.24039H74.7314V15.0529H84.9854C85.1156 15.0529 85.1807 15.118 85.1807 15.2482L85.2295 20.9123C85.2295 21.0425 85.1644 21.1076 85.0342 21.1076H74.7314V29.8478H85.0342C85.1644 29.8478 85.2295 29.9292 85.2295 30.0919V35.8048C85.2295 35.935 85.1644 36.0002 85.0342 36.0002ZM95.5322 36.0002H89.8682C89.738 36.0002 89.6729 35.9188 89.6729 35.756L89.7705 1.40543C89.7705 1.27522 89.8356 1.21011 89.9658 1.21011H100.073C101.88 1.21011 103.54 1.64957 105.054 2.52847C106.567 3.40738 107.772 4.58739 108.667 6.06851C109.578 7.54963 110.034 9.22606 110.034 11.0978C110.034 12.3185 109.847 13.4253 109.473 14.4181C109.098 15.411 108.659 16.2492 108.154 16.9328C107.666 17.6164 107.218 18.1209 106.812 18.4464C108.618 20.4484 109.521 22.8003 109.521 25.5021L109.57 35.756C109.57 35.9188 109.489 36.0002 109.326 36.0002H103.662C103.532 36.0002 103.467 35.9513 103.467 35.8537V25.5021C103.467 24.2977 103.044 23.256 102.197 22.3771C101.351 21.4982 100.309 21.0587 99.0723 21.0587H95.7764L95.7275 35.756C95.7275 35.9188 95.6624 36.0002 95.5322 36.0002ZM100.073 7.19156H95.7764V15.0529H100.073C101.099 15.0529 102.01 14.6704 102.808 13.9054C103.621 13.1405 104.028 12.2046 104.028 11.0978C104.028 10.0399 103.638 9.12841 102.856 8.36343C102.075 7.58218 101.147 7.19156 100.073 7.19156ZM111.084 35.756L117.285 1.40543C117.318 1.27522 117.399 1.21011 117.529 1.21011H124.78C124.91 1.21011 124.992 1.27522 125.024 1.40543L130.981 35.756C130.998 35.9188 130.933 36.0002 130.786 36.0002H125.244C125.081 36.0002 124.992 35.9188 124.976 35.756L124.438 32.0939H117.627L117.09 35.756C117.074 35.9188 116.992 36.0002 116.846 36.0002H111.279C111.149 36.0002 111.084 35.9188 111.084 35.756ZM120.874 12.7091L118.628 26.7472H123.438L121.387 12.7091L121.094 10.8537L120.874 12.7091ZM144.775 36.0002H139.136C138.989 36.0002 138.916 35.9188 138.916 35.756V7.24039H132.422C132.259 7.24039 132.178 7.15901 132.178 6.99625L132.227 1.40543C132.227 1.27522 132.292 1.21011 132.422 1.21011H151.416C151.595 1.21011 151.685 1.27522 151.685 1.40543V6.99625C151.685 7.15901 151.619 7.24039 151.489 7.24039H144.922L144.971 35.756C144.971 35.9188 144.906 36.0002 144.775 36.0002Z" fill="#ffffffde"/>
<path d="M197.837 36.0002H192.173C192.043 36.0002 191.978 35.9188 191.978 35.756L192.075 1.40543C192.075 1.27522 192.14 1.21011 192.271 1.21011H202.378C204.185 1.21011 205.845 1.64957 207.358 2.52847C208.872 3.40738 210.076 4.58739 210.972 6.06851C211.883 7.54963 212.339 9.22606 212.339 11.0978C212.339 12.3185 212.152 13.4253 211.777 14.4181C211.403 15.411 210.964 16.2492 210.459 16.9328C209.971 17.6164 209.523 18.1209 209.116 18.4464C210.923 20.4484 211.826 22.8003 211.826 25.5021L211.875 35.756C211.875 35.9188 211.794 36.0002 211.631 36.0002H205.967C205.837 36.0002 205.771 35.9513 205.771 35.8537V25.5021C205.771 24.2977 205.348 23.256 204.502 22.3771C203.656 21.4982 202.614 21.0587 201.377 21.0587H198.081L198.032 35.756C198.032 35.9188 197.967 36.0002 197.837 36.0002ZM202.378 7.19156H198.081V15.0529H202.378C203.403 15.0529 204.315 14.6704 205.112 13.9054C205.926 13.1405 206.333 12.2046 206.333 11.0978C206.333 10.0399 205.942 9.12841 205.161 8.36343C204.38 7.58218 203.452 7.19156 202.378 7.19156Z" fill="#ffffffde"/>
<path d="M155.4 1H154V2.40001H155.4V1Z" fill="#ffffffde"/>
<path d="M155.4 2.39999H154V3.8H155.4V2.39999Z" fill="#ffffffde"/>
<path d="M155.4 3.80002H154V5.20002H155.4V3.80002Z" fill="#ffffffde"/>
<path d="M155.4 5.20004H154V6.60005H155.4V5.20004Z" fill="#ffffffde"/>
<path d="M155.4 6.60001H154V8.00001H155.4V6.60001Z" fill="#ffffffde"/>
<path d="M155.4 8H154V9.40001H155.4V8Z" fill="#ffffffde"/>
<path d="M155.4 9.40002H154V10.8H155.4V9.40002Z" fill="#ffffffde"/>
<path d="M155.4 12.2001H154V13.6001H155.4V12.2001Z" fill="#ffffffde"/>
<path d="M155.4 13.6H154V15H155.4V13.6Z" fill="#ffffffde"/>
<path d="M155.4 17.8H154V19.2001H155.4V17.8Z" fill="#ffffffde"/>
<path d="M155.4 26.2001H154V27.6001H155.4V26.2001Z" fill="#ffffffde"/>
<path d="M155.4 27.6002H154V29.0002H155.4V27.6002Z" fill="#ffffffde"/>
<path d="M155.4 29.0001H154V30.4001H155.4V29.0001Z" fill="#ffffffde"/>
<path d="M155.4 30.4001H154V31.8001H155.4V30.4001Z" fill="#ffffffde"/>
<path d="M155.4 31.8001H154V33.2001H155.4V31.8001Z" fill="#ffffffde"/>
<path d="M155.4 33.2001H154V34.6001H155.4V33.2001Z" fill="#ffffffde"/>
<path d="M155.4 34.6002H154V36.0002H155.4V34.6002Z" fill="#ffffffde"/>
<path d="M156.8 1H155.4V2.40001H156.8V1Z" fill="#ffffffde"/>
<path d="M156.8 9.40002H155.4V10.8H156.8V9.40002Z" fill="#ffffffde"/>
<path d="M156.8 12.2001H155.4V13.6001H156.8V12.2001Z" fill="#ffffffde"/>
<path d="M156.8 13.6H155.4V15H156.8V13.6Z" fill="#ffffffde"/>
<path d="M156.8 16.4001H155.4V17.8001H156.8V16.4001Z" fill="#ffffffde"/>
<path d="M156.8 19.2001H155.4V20.6001H156.8V19.2001Z" fill="#ffffffde"/>
<path d="M156.8 22.0001H155.4V23.4001H156.8V22.0001Z" fill="#ffffffde"/>
<path d="M156.8 23.4001H155.4V24.8001H156.8V23.4001Z" fill="#ffffffde"/>
<path d="M156.8 26.2001H155.4V27.6001H156.8V26.2001Z" fill="#ffffffde"/>
<path d="M156.8 34.6002H155.4V36.0002H156.8V34.6002Z" fill="#ffffffde"/>
<path d="M158.2 1H156.8V2.40001H158.2V1Z" fill="#ffffffde"/>
<path d="M158.2 3.80002H156.8V5.20002H158.2V3.80002Z" fill="#ffffffde"/>
<path d="M158.2 5.20004H156.8V6.60005H158.2V5.20004Z" fill="#ffffffde"/>
<path d="M158.2 6.60001H156.8V8.00001H158.2V6.60001Z" fill="#ffffffde"/>
<path d="M158.2 9.40002H156.8V10.8H158.2V9.40002Z" fill="#ffffffde"/>
<path d="M158.2 13.6H156.8V15H158.2V13.6Z" fill="#ffffffde"/>
<path d="M158.2 16.4001H156.8V17.8001H158.2V16.4001Z" fill="#ffffffde"/>
<path d="M158.2 17.8H156.8V19.2001H158.2V17.8Z" fill="#ffffffde"/>
<path d="M158.2 20.6H156.8V22H158.2V20.6Z" fill="#ffffffde"/>
<path d="M158.2 22.0001H156.8V23.4001H158.2V22.0001Z" fill="#ffffffde"/>
<path d="M158.2 26.2001H156.8V27.6001H158.2V26.2001Z" fill="#ffffffde"/>
<path d="M158.2 29.0001H156.8V30.4001H158.2V29.0001Z" fill="#ffffffde"/>
<path d="M158.2 30.4001H156.8V31.8001H158.2V30.4001Z" fill="#ffffffde"/>
<path d="M158.2 31.8001H156.8V33.2001H158.2V31.8001Z" fill="#ffffffde"/>
<path d="M158.2 34.6002H156.8V36.0002H158.2V34.6002Z" fill="#ffffffde"/>
<path d="M159.6 1H158.2V2.40001H159.6V1Z" fill="#ffffffde"/>
<path d="M159.6 3.80002H158.2V5.20002H159.6V3.80002Z" fill="#ffffffde"/>
<path d="M159.6 5.20004H158.2V6.60005H159.6V5.20004Z" fill="#ffffffde"/>
<path d="M159.6 6.60001H158.2V8.00001H159.6V6.60001Z" fill="#ffffffde"/>
<path d="M159.6 9.40002H158.2V10.8H159.6V9.40002Z" fill="#ffffffde"/>
<path d="M159.6 12.2001H158.2V13.6001H159.6V12.2001Z" fill="#ffffffde"/>
<path d="M159.6 13.6H158.2V15H159.6V13.6Z" fill="#ffffffde"/>
<path d="M159.6 16.4001H158.2V17.8001H159.6V16.4001Z" fill="#ffffffde"/>
<path d="M159.6 19.2001H158.2V20.6001H159.6V19.2001Z" fill="#ffffffde"/>
<path d="M159.6 20.6H158.2V22H159.6V20.6Z" fill="#ffffffde"/>
<path d="M159.6 22.0001H158.2V23.4001H159.6V22.0001Z" fill="#ffffffde"/>
<path d="M159.6 23.4001H158.2V24.8001H159.6V23.4001Z" fill="#ffffffde"/>
<path d="M159.6 26.2001H158.2V27.6001H159.6V26.2001Z" fill="#ffffffde"/>
<path d="M159.6 29.0001H158.2V30.4001H159.6V29.0001Z" fill="#ffffffde"/>
<path d="M159.6 30.4001H158.2V31.8001H159.6V30.4001Z" fill="#ffffffde"/>
<path d="M159.6 31.8001H158.2V33.2001H159.6V31.8001Z" fill="#ffffffde"/>
<path d="M159.6 34.6002H158.2V36.0002H159.6V34.6002Z" fill="#ffffffde"/>
<path d="M161 1H159.6V2.40001H161V1Z" fill="#ffffffde"/>
<path d="M161 3.80002H159.6V5.20002H161V3.80002Z" fill="#ffffffde"/>
<path d="M161 5.20004H159.6V6.60005H161V5.20004Z" fill="#ffffffde"/>
<path d="M161 6.60001H159.6V8.00001H161V6.60001Z" fill="#ffffffde"/>
<path d="M161 9.40002H159.6V10.8H161V9.40002Z" fill="#ffffffde"/>
<path d="M161 12.2001H159.6V13.6001H161V12.2001Z" fill="#ffffffde"/>
<path d="M161 13.6H159.6V15H161V13.6Z" fill="#ffffffde"/>
<path d="M161 20.6H159.6V22H161V20.6Z" fill="#ffffffde"/>
<path d="M161 22.0001H159.6V23.4001H161V22.0001Z" fill="#ffffffde"/>
<path d="M161 26.2001H159.6V27.6001H161V26.2001Z" fill="#ffffffde"/>
<path d="M161 29.0001H159.6V30.4001H161V29.0001Z" fill="#ffffffde"/>
<path d="M161 30.4001H159.6V31.8001H161V30.4001Z" fill="#ffffffde"/>
<path d="M161 31.8001H159.6V33.2001H161V31.8001Z" fill="#ffffffde"/>
<path d="M161 34.6002H159.6V36.0002H161V34.6002Z" fill="#ffffffde"/>
<path d="M162.4 1H161V2.40001H162.4V1Z" fill="#ffffffde"/>
<path d="M162.4 9.40002H161V10.8H162.4V9.40002Z" fill="#ffffffde"/>
<path d="M162.4 15.0001H161V16.4001H162.4V15.0001Z" fill="#ffffffde"/>
<path d="M162.4 19.2001H161V20.6001H162.4V19.2001Z" fill="#ffffffde"/>
<path d="M162.4 20.6H161V22H162.4V20.6Z" fill="#ffffffde"/>
<path d="M162.4 23.4001H161V24.8001H162.4V23.4001Z" fill="#ffffffde"/>
<path d="M162.4 26.2001H161V27.6001H162.4V26.2001Z" fill="#ffffffde"/>
<path d="M162.4 34.6002H161V36.0002H162.4V34.6002Z" fill="#ffffffde"/>
<path d="M163.8 1H162.4V2.40001H163.8V1Z" fill="#ffffffde"/>
<path d="M163.8 2.39999H162.4V3.8H163.8V2.39999Z" fill="#ffffffde"/>
<path d="M163.8 3.80002H162.4V5.20002H163.8V3.80002Z" fill="#ffffffde"/>
<path d="M163.8 5.20004H162.4V6.60005H163.8V5.20004Z" fill="#ffffffde"/>
<path d="M163.8 6.60001H162.4V8.00001H163.8V6.60001Z" fill="#ffffffde"/>
<path d="M163.8 8H162.4V9.40001H163.8V8Z" fill="#ffffffde"/>
<path d="M163.8 9.40002H162.4V10.8H163.8V9.40002Z" fill="#ffffffde"/>
<path d="M163.8 12.2001H162.4V13.6001H163.8V12.2001Z" fill="#ffffffde"/>
<path d="M163.8 15.0001H162.4V16.4001H163.8V15.0001Z" fill="#ffffffde"/>
<path d="M163.8 17.8H162.4V19.2001H163.8V17.8Z" fill="#ffffffde"/>
<path d="M163.8 20.6H162.4V22H163.8V20.6Z" fill="#ffffffde"/>
<path d="M163.8 23.4001H162.4V24.8001H163.8V23.4001Z" fill="#ffffffde"/>
<path d="M163.8 26.2001H162.4V27.6001H163.8V26.2001Z" fill="#ffffffde"/>
<path d="M163.8 27.6002H162.4V29.0002H163.8V27.6002Z" fill="#ffffffde"/>
<path d="M163.8 29.0001H162.4V30.4001H163.8V29.0001Z" fill="#ffffffde"/>
<path d="M163.8 30.4001H162.4V31.8001H163.8V30.4001Z" fill="#ffffffde"/>
<path d="M163.8 31.8001H162.4V33.2001H163.8V31.8001Z" fill="#ffffffde"/>
<path d="M163.8 33.2001H162.4V34.6001H163.8V33.2001Z" fill="#ffffffde"/>
<path d="M163.8 34.6002H162.4V36.0002H163.8V34.6002Z" fill="#ffffffde"/>
<path d="M165.2 15.0001H163.8V16.4001H165.2V15.0001Z" fill="#ffffffde"/>
<path d="M165.2 23.4001H163.8V24.8001H165.2V23.4001Z" fill="#ffffffde"/>
<path d="M166.6 1H165.2V2.40001H166.6V1Z" fill="#ffffffde"/>
<path d="M166.6 9.40002H165.2V10.8H166.6V9.40002Z" fill="#ffffffde"/>
<path d="M166.6 10.8H165.2V12.2001H166.6V10.8Z" fill="#ffffffde"/>
<path d="M166.6 15.0001H165.2V16.4001H166.6V15.0001Z" fill="#ffffffde"/>
<path d="M166.6 16.4001H165.2V17.8001H166.6V16.4001Z" fill="#ffffffde"/>
<path d="M166.6 20.6H165.2V22H166.6V20.6Z" fill="#ffffffde"/>
<path d="M166.6 22.0001H165.2V23.4001H166.6V22.0001Z" fill="#ffffffde"/>
<path d="M166.6 24.8001H165.2V26.2001H166.6V24.8001Z" fill="#ffffffde"/>
<path d="M166.6 29.0001H165.2V30.4001H166.6V29.0001Z" fill="#ffffffde"/>
<path d="M166.6 30.4001H165.2V31.8001H166.6V30.4001Z" fill="#ffffffde"/>
<path d="M166.6 33.2001H165.2V34.6001H166.6V33.2001Z" fill="#ffffffde"/>
<path d="M166.6 34.6002H165.2V36.0002H166.6V34.6002Z" fill="#ffffffde"/>
<path d="M168 1H166.6V2.40001H168V1Z" fill="#ffffffde"/>
<path d="M168 2.39999H166.6V3.8H168V2.39999Z" fill="#ffffffde"/>
<path d="M168 3.80002H166.6V5.20002H168V3.80002Z" fill="#ffffffde"/>
<path d="M168 8H166.6V9.40001H168V8Z" fill="#ffffffde"/>
<path d="M168 10.8H166.6V12.2001H168V10.8Z" fill="#ffffffde"/>
<path d="M168 12.2001H166.6V13.6001H168V12.2001Z" fill="#ffffffde"/>
<path d="M168 15.0001H166.6V16.4001H168V15.0001Z" fill="#ffffffde"/>
<path d="M168 17.8H166.6V19.2001H168V17.8Z" fill="#ffffffde"/>
<path d="M168 19.2001H166.6V20.6001H168V19.2001Z" fill="#ffffffde"/>
<path d="M168 20.6H166.6V22H168V20.6Z" fill="#ffffffde"/>
<path d="M168 22.0001H166.6V23.4001H168V22.0001Z" fill="#ffffffde"/>
<path d="M168 24.8001H166.6V26.2001H168V24.8001Z" fill="#ffffffde"/>
<path d="M168 29.0001H166.6V30.4001H168V29.0001Z" fill="#ffffffde"/>
<path d="M168 30.4001H166.6V31.8001H168V30.4001Z" fill="#ffffffde"/>
<path d="M168 34.6002H166.6V36.0002H168V34.6002Z" fill="#ffffffde"/>
<path d="M169.4 2.39999H168V3.8H169.4V2.39999Z" fill="#ffffffde"/>
<path d="M169.4 3.80002H168V5.20002H169.4V3.80002Z" fill="#ffffffde"/>
<path d="M169.4 5.20004H168V6.60005H169.4V5.20004Z" fill="#ffffffde"/>
<path d="M169.4 9.40002H168V10.8H169.4V9.40002Z" fill="#ffffffde"/>
<path d="M169.4 13.6H168V15H169.4V13.6Z" fill="#ffffffde"/>
<path d="M169.4 17.8H168V19.2001H169.4V17.8Z" fill="#ffffffde"/>
<path d="M169.4 19.2001H168V20.6001H169.4V19.2001Z" fill="#ffffffde"/>
<path d="M169.4 20.6H168V22H169.4V20.6Z" fill="#ffffffde"/>
<path d="M169.4 22.0001H168V23.4001H169.4V22.0001Z" fill="#ffffffde"/>
<path d="M169.4 23.4001H168V24.8001H169.4V23.4001Z" fill="#ffffffde"/>
<path d="M169.4 26.2001H168V27.6001H169.4V26.2001Z" fill="#ffffffde"/>
<path d="M169.4 27.6002H168V29.0002H169.4V27.6002Z" fill="#ffffffde"/>
<path d="M169.4 30.4001H168V31.8001H169.4V30.4001Z" fill="#ffffffde"/>
<path d="M169.4 33.2001H168V34.6001H169.4V33.2001Z" fill="#ffffffde"/>
<path d="M169.4 34.6002H168V36.0002H169.4V34.6002Z" fill="#ffffffde"/>
<path d="M170.8 8H169.4V9.40001H170.8V8Z" fill="#ffffffde"/>
<path d="M170.8 12.2001H169.4V13.6001H170.8V12.2001Z" fill="#ffffffde"/>
<path d="M170.8 13.6H169.4V15H170.8V13.6Z" fill="#ffffffde"/>
<path d="M170.8 15.0001H169.4V16.4001H170.8V15.0001Z" fill="#ffffffde"/>
<path d="M170.8 16.4001H169.4V17.8001H170.8V16.4001Z" fill="#ffffffde"/>
<path d="M170.8 19.2001H169.4V20.6001H170.8V19.2001Z" fill="#ffffffde"/>
<path d="M170.8 26.2001H169.4V27.6001H170.8V26.2001Z" fill="#ffffffde"/>
<path d="M170.8 30.4001H169.4V31.8001H170.8V30.4001Z" fill="#ffffffde"/>
<path d="M170.8 31.8001H169.4V33.2001H170.8V31.8001Z" fill="#ffffffde"/>
<path d="M170.8 34.6002H169.4V36.0002H170.8V34.6002Z" fill="#ffffffde"/>
<path d="M172.2 5.20004H170.8V6.60005H172.2V5.20004Z" fill="#ffffffde"/>
<path d="M172.2 9.40002H170.8V10.8H172.2V9.40002Z" fill="#ffffffde"/>
<path d="M172.2 10.8H170.8V12.2001H172.2V10.8Z" fill="#ffffffde"/>
<path d="M172.2 16.4001H170.8V17.8001H172.2V16.4001Z" fill="#ffffffde"/>
<path d="M172.2 17.8H170.8V19.2001H172.2V17.8Z" fill="#ffffffde"/>
<path d="M172.2 20.6H170.8V22H172.2V20.6Z" fill="#ffffffde"/>
<path d="M172.2 23.4001H170.8V24.8001H172.2V23.4001Z" fill="#ffffffde"/>
<path d="M172.2 27.6002H170.8V29.0002H172.2V27.6002Z" fill="#ffffffde"/>
<path d="M172.2 29.0001H170.8V30.4001H172.2V29.0001Z" fill="#ffffffde"/>
<path d="M172.2 31.8001H170.8V33.2001H172.2V31.8001Z" fill="#ffffffde"/>
<path d="M172.2 33.2001H170.8V34.6001H172.2V33.2001Z" fill="#ffffffde"/>
<path d="M173.6 2.39999H172.2V3.8H173.6V2.39999Z" fill="#ffffffde"/>
<path d="M173.6 3.80002H172.2V5.20002H173.6V3.80002Z" fill="#ffffffde"/>
<path d="M173.6 5.20004H172.2V6.60005H173.6V5.20004Z" fill="#ffffffde"/>
<path d="M173.6 6.60001H172.2V8.00001H173.6V6.60001Z" fill="#ffffffde"/>
<path d="M173.6 8H172.2V9.40001H173.6V8Z" fill="#ffffffde"/>
<path d="M173.6 10.8H172.2V12.2001H173.6V10.8Z" fill="#ffffffde"/>
<path d="M173.6 20.6H172.2V22H173.6V20.6Z" fill="#ffffffde"/>
<path d="M173.6 23.4001H172.2V24.8001H173.6V23.4001Z" fill="#ffffffde"/>
<path d="M173.6 26.2001H172.2V27.6001H173.6V26.2001Z" fill="#ffffffde"/>
<path d="M173.6 27.6002H172.2V29.0002H173.6V27.6002Z" fill="#ffffffde"/>
<path d="M175 1H173.6V2.40001H175V1Z" fill="#ffffffde"/>
<path d="M175 3.80002H173.6V5.20002H175V3.80002Z" fill="#ffffffde"/>
<path d="M175 5.20004H173.6V6.60005H175V5.20004Z" fill="#ffffffde"/>
<path d="M175 6.60001H173.6V8.00001H175V6.60001Z" fill="#ffffffde"/>
<path d="M175 8H173.6V9.40001H175V8Z" fill="#ffffffde"/>
<path d="M175 9.40002H173.6V10.8H175V9.40002Z" fill="#ffffffde"/>
<path d="M175 12.2001H173.6V13.6001H175V12.2001Z" fill="#ffffffde"/>
<path d="M175 13.6H173.6V15H175V13.6Z" fill="#ffffffde"/>
<path d="M175 16.4001H173.6V17.8001H175V16.4001Z" fill="#ffffffde"/>
<path d="M175 19.2001H173.6V20.6001H175V19.2001Z" fill="#ffffffde"/>
<path d="M175 20.6H173.6V22H175V20.6Z" fill="#ffffffde"/>
<path d="M175 22.0001H173.6V23.4001H175V22.0001Z" fill="#ffffffde"/>
<path d="M175 27.6002H173.6V29.0002H175V27.6002Z" fill="#ffffffde"/>
<path d="M175 29.0001H173.6V30.4001H175V29.0001Z" fill="#ffffffde"/>
<path d="M175 30.4001H173.6V31.8001H175V30.4001Z" fill="#ffffffde"/>
<path d="M175 31.8001H173.6V33.2001H175V31.8001Z" fill="#ffffffde"/>
<path d="M175 33.2001H173.6V34.6001H175V33.2001Z" fill="#ffffffde"/>
<path d="M176.4 5.20004H175V6.60005H176.4V5.20004Z" fill="#ffffffde"/>
<path d="M176.4 10.8H175V12.2001H176.4V10.8Z" fill="#ffffffde"/>
<path d="M176.4 12.2001H175V13.6001H176.4V12.2001Z" fill="#ffffffde"/>
<path d="M176.4 13.6H175V15H176.4V13.6Z" fill="#ffffffde"/>
<path d="M176.4 15.0001H175V16.4001H176.4V15.0001Z" fill="#ffffffde"/>
<path d="M176.4 16.4001H175V17.8001H176.4V16.4001Z" fill="#ffffffde"/>
<path d="M176.4 19.2001H175V20.6001H176.4V19.2001Z" fill="#ffffffde"/>
<path d="M176.4 20.6H175V22H176.4V20.6Z" fill="#ffffffde"/>
<path d="M176.4 22.0001H175V23.4001H176.4V22.0001Z" fill="#ffffffde"/>
<path d="M176.4 23.4001H175V24.8001H176.4V23.4001Z" fill="#ffffffde"/>
<path d="M176.4 27.6002H175V29.0002H176.4V27.6002Z" fill="#ffffffde"/>
<path d="M176.4 29.0001H175V30.4001H176.4V29.0001Z" fill="#ffffffde"/>
<path d="M176.4 30.4001H175V31.8001H176.4V30.4001Z" fill="#ffffffde"/>
<path d="M176.4 33.2001H175V34.6001H176.4V33.2001Z" fill="#ffffffde"/>
<path d="M177.8 2.39999H176.4V3.8H177.8V2.39999Z" fill="#ffffffde"/>
<path d="M177.8 5.20004H176.4V6.60005H177.8V5.20004Z" fill="#ffffffde"/>
<path d="M177.8 6.60001H176.4V8.00001H177.8V6.60001Z" fill="#ffffffde"/>
<path d="M177.8 9.40002H176.4V10.8H177.8V9.40002Z" fill="#ffffffde"/>
<path d="M177.8 12.2001H176.4V13.6001H177.8V12.2001Z" fill="#ffffffde"/>
<path d="M177.8 17.8H176.4V19.2001H177.8V17.8Z" fill="#ffffffde"/>
<path d="M177.8 20.6H176.4V22H177.8V20.6Z" fill="#ffffffde"/>
<path d="M177.8 22.0001H176.4V23.4001H177.8V22.0001Z" fill="#ffffffde"/>
<path d="M177.8 23.4001H176.4V24.8001H177.8V23.4001Z" fill="#ffffffde"/>
<path d="M177.8 24.8001H176.4V26.2001H177.8V24.8001Z" fill="#ffffffde"/>
<path d="M177.8 26.2001H176.4V27.6001H177.8V26.2001Z" fill="#ffffffde"/>
<path d="M177.8 27.6002H176.4V29.0002H177.8V27.6002Z" fill="#ffffffde"/>
<path d="M177.8 29.0001H176.4V30.4001H177.8V29.0001Z" fill="#ffffffde"/>
<path d="M177.8 30.4001H176.4V31.8001H177.8V30.4001Z" fill="#ffffffde"/>
<path d="M177.8 34.6002H176.4V36.0002H177.8V34.6002Z" fill="#ffffffde"/>
<path d="M179.2 15.0001H177.8V16.4001H179.2V15.0001Z" fill="#ffffffde"/>
<path d="M179.2 19.2001H177.8V20.6001H179.2V19.2001Z" fill="#ffffffde"/>
<path d="M179.2 20.6H177.8V22H179.2V20.6Z" fill="#ffffffde"/>
<path d="M179.2 23.4001H177.8V24.8001H179.2V23.4001Z" fill="#ffffffde"/>
<path d="M179.2 29.0001H177.8V30.4001H179.2V29.0001Z" fill="#ffffffde"/>
<path d="M179.2 30.4001H177.8V31.8001H179.2V30.4001Z" fill="#ffffffde"/>
<path d="M179.2 31.8001H177.8V33.2001H179.2V31.8001Z" fill="#ffffffde"/>
<path d="M179.2 33.2001H177.8V34.6001H179.2V33.2001Z" fill="#ffffffde"/>
<path d="M179.2 34.6002H177.8V36.0002H179.2V34.6002Z" fill="#ffffffde"/>
<path d="M180.6 1H179.2V2.40001H180.6V1Z" fill="#ffffffde"/>
<path d="M180.6 2.39999H179.2V3.8H180.6V2.39999Z" fill="#ffffffde"/>
<path d="M180.6 3.80002H179.2V5.20002H180.6V3.80002Z" fill="#ffffffde"/>
<path d="M180.6 5.20004H179.2V6.60005H180.6V5.20004Z" fill="#ffffffde"/>
<path d="M180.6 6.60001H179.2V8.00001H180.6V6.60001Z" fill="#ffffffde"/>
<path d="M180.6 8H179.2V9.40001H180.6V8Z" fill="#ffffffde"/>
<path d="M180.6 9.40002H179.2V10.8H180.6V9.40002Z" fill="#ffffffde"/>
<path d="M180.6 12.2001H179.2V13.6001H180.6V12.2001Z" fill="#ffffffde"/>
<path d="M180.6 16.4001H179.2V17.8001H180.6V16.4001Z" fill="#ffffffde"/>
<path d="M180.6 17.8H179.2V19.2001H180.6V17.8Z" fill="#ffffffde"/>
<path d="M180.6 20.6H179.2V22H180.6V20.6Z" fill="#ffffffde"/>
<path d="M180.6 22.0001H179.2V23.4001H180.6V22.0001Z" fill="#ffffffde"/>
<path d="M180.6 23.4001H179.2V24.8001H180.6V23.4001Z" fill="#ffffffde"/>
<path d="M180.6 26.2001H179.2V27.6001H180.6V26.2001Z" fill="#ffffffde"/>
<path d="M180.6 29.0001H179.2V30.4001H180.6V29.0001Z" fill="#ffffffde"/>
<path d="M180.6 30.4001H179.2V31.8001H180.6V30.4001Z" fill="#ffffffde"/>
<path d="M180.6 34.6002H179.2V36.0002H180.6V34.6002Z" fill="#ffffffde"/>
<path d="M182 1H180.6V2.40001H182V1Z" fill="#ffffffde"/>
<path d="M182 9.40002H180.6V10.8H182V9.40002Z" fill="#ffffffde"/>
<path d="M182 13.6H180.6V15H182V13.6Z" fill="#ffffffde"/>
<path d="M182 15.0001H180.6V16.4001H182V15.0001Z" fill="#ffffffde"/>
<path d="M182 16.4001H180.6V17.8001H182V16.4001Z" fill="#ffffffde"/>
<path d="M182 17.8H180.6V19.2001H182V17.8Z" fill="#ffffffde"/>
<path d="M182 22.0001H180.6V23.4001H182V22.0001Z" fill="#ffffffde"/>
<path d="M182 23.4001H180.6V24.8001H182V23.4001Z" fill="#ffffffde"/>
<path d="M182 29.0001H180.6V30.4001H182V29.0001Z" fill="#ffffffde"/>
<path d="M182 33.2001H180.6V34.6001H182V33.2001Z" fill="#ffffffde"/>
<path d="M183.4 1H182V2.40001H183.4V1Z" fill="#ffffffde"/>
<path d="M183.4 3.80002H182V5.20002H183.4V3.80002Z" fill="#ffffffde"/>
<path d="M183.4 5.20004H182V6.60005H183.4V5.20004Z" fill="#ffffffde"/>
<path d="M183.4 6.60001H182V8.00001H183.4V6.60001Z" fill="#ffffffde"/>
<path d="M183.4 9.40002H182V10.8H183.4V9.40002Z" fill="#ffffffde"/>
<path d="M183.4 13.6H182V15H183.4V13.6Z" fill="#ffffffde"/>
<path d="M183.4 19.2001H182V20.6001H183.4V19.2001Z" fill="#ffffffde"/>
<path d="M183.4 20.6H182V22H183.4V20.6Z" fill="#ffffffde"/>
<path d="M183.4 23.4001H182V24.8001H183.4V23.4001Z" fill="#ffffffde"/>
<path d="M183.4 24.8001H182V26.2001H183.4V24.8001Z" fill="#ffffffde"/>
<path d="M183.4 26.2001H182V27.6001H183.4V26.2001Z" fill="#ffffffde"/>
<path d="M183.4 27.6002H182V29.0002H183.4V27.6002Z" fill="#ffffffde"/>
<path d="M183.4 29.0001H182V30.4001H183.4V29.0001Z" fill="#ffffffde"/>
<path d="M183.4 31.8001H182V33.2001H183.4V31.8001Z" fill="#ffffffde"/>
<path d="M183.4 33.2001H182V34.6001H183.4V33.2001Z" fill="#ffffffde"/>
<path d="M184.8 1H183.4V2.40001H184.8V1Z" fill="#ffffffde"/>
<path d="M184.8 3.80002H183.4V5.20002H184.8V3.80002Z" fill="#ffffffde"/>
<path d="M184.8 5.20004H183.4V6.60005H184.8V5.20004Z" fill="#ffffffde"/>
<path d="M184.8 6.60001H183.4V8.00001H184.8V6.60001Z" fill="#ffffffde"/>
<path d="M184.8 9.40002H183.4V10.8H184.8V9.40002Z" fill="#ffffffde"/>
<path d="M184.8 13.6H183.4V15H184.8V13.6Z" fill="#ffffffde"/>
<path d="M184.8 15.0001H183.4V16.4001H184.8V15.0001Z" fill="#ffffffde"/>
<path d="M184.8 16.4001H183.4V17.8001H184.8V16.4001Z" fill="#ffffffde"/>
<path d="M184.8 20.6H183.4V22H184.8V20.6Z" fill="#ffffffde"/>
<path d="M184.8 22.0001H183.4V23.4001H184.8V22.0001Z" fill="#ffffffde"/>
<path d="M184.8 31.8001H183.4V33.2001H184.8V31.8001Z" fill="#ffffffde"/>
<path d="M184.8 34.6002H183.4V36.0002H184.8V34.6002Z" fill="#ffffffde"/>
<path d="M186.2 1H184.8V2.40001H186.2V1Z" fill="#ffffffde"/>
<path d="M186.2 3.80002H184.8V5.20002H186.2V3.80002Z" fill="#ffffffde"/>
<path d="M186.2 5.20004H184.8V6.60005H186.2V5.20004Z" fill="#ffffffde"/>
<path d="M186.2 6.60001H184.8V8.00001H186.2V6.60001Z" fill="#ffffffde"/>
<path d="M186.2 9.40002H184.8V10.8H186.2V9.40002Z" fill="#ffffffde"/>
<path d="M186.2 13.6H184.8V15H186.2V13.6Z" fill="#ffffffde"/>
<path d="M186.2 16.4001H184.8V17.8001H186.2V16.4001Z" fill="#ffffffde"/>
<path d="M186.2 20.6H184.8V22H186.2V20.6Z" fill="#ffffffde"/>
<path d="M186.2 22.0001H184.8V23.4001H186.2V22.0001Z" fill="#ffffffde"/>
<path d="M186.2 23.4001H184.8V24.8001H186.2V23.4001Z" fill="#ffffffde"/>
<path d="M186.2 24.8001H184.8V26.2001H186.2V24.8001Z" fill="#ffffffde"/>
<path d="M186.2 31.8001H184.8V33.2001H186.2V31.8001Z" fill="#ffffffde"/>
<path d="M186.2 33.2001H184.8V34.6001H186.2V33.2001Z" fill="#ffffffde"/>
<path d="M187.6 1H186.2V2.40001H187.6V1Z" fill="#ffffffde"/>
<path d="M187.6 9.40002H186.2V10.8H187.6V9.40002Z" fill="#ffffffde"/>
<path d="M187.6 13.6H186.2V15H187.6V13.6Z" fill="#ffffffde"/>
<path d="M187.6 16.4001H186.2V17.8001H187.6V16.4001Z" fill="#ffffffde"/>
<path d="M187.6 19.2001H186.2V20.6001H187.6V19.2001Z" fill="#ffffffde"/>
<path d="M187.6 20.6H186.2V22H187.6V20.6Z" fill="#ffffffde"/>
<path d="M187.6 23.4001H186.2V24.8001H187.6V23.4001Z" fill="#ffffffde"/>
<path d="M187.6 24.8001H186.2V26.2001H187.6V24.8001Z" fill="#ffffffde"/>
<path d="M187.6 29.0001H186.2V30.4001H187.6V29.0001Z" fill="#ffffffde"/>
<path d="M187.6 30.4001H186.2V31.8001H187.6V30.4001Z" fill="#ffffffde"/>
<path d="M187.6 31.8001H186.2V33.2001H187.6V31.8001Z" fill="#ffffffde"/>
<path d="M187.6 33.2001H186.2V34.6001H187.6V33.2001Z" fill="#ffffffde"/>
<path d="M189 1H187.6V2.40001H189V1Z" fill="#ffffffde"/>
<path d="M189 2.39999H187.6V3.8H189V2.39999Z" fill="#ffffffde"/>
<path d="M189 3.80002H187.6V5.20002H189V3.80002Z" fill="#ffffffde"/>
<path d="M189 5.20004H187.6V6.60005H189V5.20004Z" fill="#ffffffde"/>
<path d="M189 6.60001H187.6V8.00001H189V6.60001Z" fill="#ffffffde"/>
<path d="M189 8H187.6V9.40001H189V8Z" fill="#ffffffde"/>
<path d="M189 9.40002H187.6V10.8H189V9.40002Z" fill="#ffffffde"/>
<path d="M189 12.2001H187.6V13.6001H189V12.2001Z" fill="#ffffffde"/>
<path d="M189 15.0001H187.6V16.4001H189V15.0001Z" fill="#ffffffde"/>
<path d="M189 16.4001H187.6V17.8001H189V16.4001Z" fill="#ffffffde"/>
<path d="M189 17.8H187.6V19.2001H189V17.8Z" fill="#ffffffde"/>
<path d="M189 20.6H187.6V22H189V20.6Z" fill="#ffffffde"/>
<path d="M189 22.0001H187.6V23.4001H189V22.0001Z" fill="#ffffffde"/>
<path d="M189 26.2001H187.6V27.6001H189V26.2001Z" fill="#ffffffde"/>
<path d="M189 30.4001H187.6V31.8001H189V30.4001Z" fill="#ffffffde"/>
<path d="M189 31.8001H187.6V33.2001H189V31.8001Z" fill="#ffffffde"/>
<path d="M189 33.2001H187.6V34.6001H189V33.2001Z" fill="#ffffffde"/>
<path d="M189 34.6002H187.6V36.0002H189V34.6002Z" fill="#ffffffde"/>
</svg>
