<svg width="72" height="72" viewBox="0 0 72 72" fill="none" xmlns="http://www.w3.org/2000/svg">
    <g clip-path="url(#clip0_1766_80)">
        <path d="M48 51V48H39V39H48V45H54V51H51V57H45V63H39V54H45V51H48ZM63 63H51V57H57V51H63V63ZM9 9H33V33H9V9ZM15 15V27H27V15H15ZM39 9H63V33H39V9ZM45 15V27H57V15H45ZM9 39H33V63H9V39ZM15 45V57H27V45H15ZM54 39H63V45H54V39ZM18 18H24V24H18V18ZM18 48H24V54H18V48ZM48 18H54V24H48V18Z" fill="white"/>
    </g>
    <defs>
        <clipPath id="clip0_1766_80">
            <rect width="72" height="72" fill="white"/>
        </clipPath>
    </defs>
</svg>
