<svg width="20" height="20" viewBox="0 0 20 20" fill="none" xmlns="http://www.w3.org/2000/svg">
    <g clip-path="url(#clip0_2035_144)">
        <mask id="mask0_2035_144" style="mask-type:luminance" maskUnits="userSpaceOnUse" x="0" y="0" width="20" height="20">
            <path d="M10 20C15.5228 20 20 15.5228 20 10C20 4.47715 15.5228 0 10 0C4.47715 0 0 4.47715 0 10C0 15.5228 4.47715 20 10 20Z" fill="white"/>
        </mask>
        <g mask="url(#mask0_2035_144)">
            <path d="M0 6.51953L9.88281 5.27734L20 6.51953V13.4727L9.94141 14.9336L0 13.4766V6.51953Z" fill="#D80027"/>
            <path d="M0 0H20V6.51953H0V0Z" fill="#338AF3"/>
            <path d="M0 13.4727H20V20H0V13.4727Z" fill="#6DA544"/>
            <path d="M10.2188 12.8203C9.78958 12.8191 9.36632 12.7201 8.98112 12.5309C8.59593 12.3416 8.25893 12.067 7.99575 11.728C7.73256 11.389 7.5501 10.9944 7.46223 10.5743C7.37436 10.1542 7.38339 9.71964 7.48863 9.30356C7.59388 8.88747 7.79257 8.50085 8.06961 8.17306C8.34665 7.84526 8.69476 7.58492 9.08748 7.41181C9.48021 7.2387 9.90722 7.15737 10.3361 7.17401C10.765 7.19064 11.1844 7.3048 11.5625 7.50781C11.0732 7.02959 10.4536 6.70638 9.78146 6.57867C9.10928 6.45097 8.41436 6.52444 7.78375 6.7899C7.15314 7.05535 6.61488 7.50098 6.23639 8.07096C5.8579 8.64094 5.65601 9.30994 5.65601 9.99414C5.65601 10.6783 5.8579 11.3473 6.23639 11.9173C6.61488 12.4873 7.15314 12.9329 7.78375 13.1984C8.41436 13.4638 9.10928 13.5373 9.78146 13.4096C10.4536 13.2819 11.0732 12.9587 11.5625 12.4805C11.15 12.7041 10.688 12.8209 10.2188 12.8203Z" fill="#EEEEEE"/>
            <path d="M12.3906 8.04688L12.7656 9.09375L13.7734 8.61328L13.2969 9.62109L14.3477 9.99609L13.293 10.3711L13.7734 11.3789L12.7656 10.8984L12.3906 11.9531L12.0156 10.8984L11.0078 11.3789L11.4883 10.3711L10.4336 9.99609L11.4883 9.62109L11.0078 8.61328L12.0156 9.09375L12.3906 8.04688Z" fill="#EEEEEE"/>
        </g>
    </g>
    <defs>
        <clipPath id="clip0_2035_144">
            <rect width="20" height="20" fill="white"/>
        </clipPath>
    </defs>
</svg>
